# xmcd
#
# Track frame offsets:
# 150
# 13072
# 25250
# 36137
# 46822
# 57222
# 68550
# 80685
# 92197
# 104752
# 115507
# 126542
# 139355
# 149710
# 163592
# 176867
#
# Disc length: 2520 seconds
#
#
# Revision: 2
# Processed by: cddbd v1.5PL3 Copyright (c) Steve Scherf et al.
# Submitted via: FreeRIP 2.51 
#
DISCID=eb09d610
DTITLE=Jimmy Reed - 60 Essential Blues Classics
DYEAR=2002
DGENRE=Blues
TTITLE0=The Sun Is Shining
TTITLE1=Honest I Do
TTITLE2=Down In Virginia
TTITLE3=Baby What You Want Me To Do
TTITLE4=Found Love
TTITLE5=Hush Hush
TTITLE6=Bright Lights, Big City
TTITLE7=Close Together
TTITLE8=Big Boss Man
TTITLE9=Aw Shucks, Hush Your Mouth
TTITLE10=Good Lover
TTITLE11=Shame, Shame, Shame
TTITLE12=I Ain't Got You
TTITLE13=Down in Virginia
TTITLE14=I'm Forty Upside Your Head
TTITLE15=Pretty Ring
EXTD=CD 2
EXTT0=
EXTT1=
EXTT2=
EXTT3=
EXTT4=
EXTT5=
EXTT6=
EXTT7=
EXTT8=
EXTT9=
EXTT10=
EXTT11=
EXTT12=
EXTT13=
EXTT14=
EXTT15=
PLAYORDER=
